<?xml version="1.0" encoding="utf-8"?>
<!-- Generator: Adobe Illustrator 23.0.0, SVG Export Plug-In . SVG Version: 6.00 Build 0)  -->
<svg version="1.1" id="Layer_1" xmlns="http://www.w3.org/2000/svg" xmlns:xlink="http://www.w3.org/1999/xlink" x="0px" y="0px"
	 viewBox="0 0 452.36 154.23" style="enable-background:new 0 0 452.36 154.23;" xml:space="preserve">
<style type="text/css">
	.st0{fill:#55AAFF;}
	
</style>


<g class="stroke-path" stroke="#000000" stroke-width=".1">
	<path d="M71.87,153.38c-0.92,0.38-1.88,0.57-2.89,0.57c-1.62,0-2.87-0.48-3.74-1.45s-1.31-2.4-1.31-4.3c0-0.92,0.12-1.75,0.36-2.5
		s0.58-1.38,1.03-1.89s0.98-0.92,1.62-1.2s1.34-0.42,2.13-0.42c0.53,0,1.03,0.05,1.49,0.14s0.9,0.23,1.32,0.42v1.54
		c-0.42-0.23-0.85-0.4-1.29-0.52s-0.93-0.18-1.46-0.18c-0.54,0-1.03,0.1-1.46,0.3s-0.81,0.5-1.11,0.88s-0.54,0.85-0.7,1.41
		s-0.25,1.19-0.25,1.89c0,1.49,0.3,2.61,0.91,3.37s1.49,1.13,2.65,1.13c0.49,0,0.96-0.06,1.42-0.17s0.88-0.27,1.3-0.48V153.38z"/>
	<path d="M82.26,153.81h-1.77l-1.71-3.67c-0.13-0.28-0.26-0.51-0.4-0.7s-0.28-0.33-0.44-0.44s-0.33-0.19-0.51-0.23
		s-0.39-0.07-0.62-0.07h-0.74v5.12h-1.56v-11.49h3.08c0.67,0,1.24,0.07,1.72,0.22s0.87,0.35,1.18,0.62s0.53,0.58,0.68,0.95
		s0.22,0.78,0.22,1.23c0,0.36-0.05,0.7-0.16,1.02s-0.26,0.61-0.47,0.87s-0.47,0.49-0.77,0.68s-0.66,0.33-1.06,0.43
		c0.32,0.11,0.6,0.31,0.82,0.58s0.46,0.65,0.69,1.11L82.26,153.81z M79.75,145.48c0-0.62-0.19-1.08-0.58-1.38s-0.92-0.46-1.62-0.46
		h-1.48v3.8h1.27c0.37,0,0.7-0.04,1-0.13s0.55-0.21,0.76-0.38s0.37-0.37,0.48-0.62S79.75,145.8,79.75,145.48z"/>
	<path d="M87.08,143.65h-2.65v-1.32h6.87v1.32h-2.65v8.83h2.65v1.34h-6.87v-1.34h2.65V143.65z"/>
	<path d="M101.96,143.66h-3.4v10.15h-1.58v-10.15h-3.4v-1.34h8.38V143.66z"/>
	<path d="M106.87,143.65h-2.65v-1.32h6.87v1.32h-2.65v8.83h2.65v1.34h-6.87v-1.34h2.65V143.65z"/>
	<path d="M121.35,153.38c-0.92,0.38-1.88,0.57-2.89,0.57c-1.62,0-2.87-0.48-3.74-1.45s-1.31-2.4-1.31-4.3c0-0.92,0.12-1.75,0.36-2.5
		s0.58-1.38,1.03-1.89s0.98-0.92,1.62-1.2s1.34-0.42,2.13-0.42c0.53,0,1.03,0.05,1.49,0.14s0.9,0.23,1.32,0.42v1.54
		c-0.42-0.23-0.85-0.4-1.29-0.52s-0.93-0.18-1.46-0.18c-0.54,0-1.03,0.1-1.46,0.3s-0.81,0.5-1.11,0.88s-0.54,0.85-0.7,1.41
		s-0.25,1.19-0.25,1.89c0,1.49,0.3,2.61,0.91,3.37s1.49,1.13,2.65,1.13c0.49,0,0.96-0.06,1.42-0.17s0.88-0.27,1.3-0.48V153.38z"/>
	<path d="M132.31,153.81h-1.71l-0.8-2.5h-4.78l-0.81,2.5h-1.63l3.81-11.49h2.14L132.31,153.81z M129.36,149.91l-1.94-6.14
		l-1.94,6.14H129.36z"/>
	<path d="M141.06,153.81h-6.61v-11.49h1.59v10.15h5.02V153.81z"/>
	<path d="M161.61,148c0,1.03-0.12,1.92-0.36,2.67s-0.57,1.37-0.98,1.86s-0.9,0.85-1.45,1.09s-1.14,0.36-1.75,0.36
		c-0.74,0-1.38-0.13-1.93-0.4s-1-0.65-1.36-1.16s-0.63-1.12-0.8-1.84s-0.26-1.54-0.26-2.45c0-1.02,0.12-1.9,0.36-2.65
		s0.57-1.37,0.98-1.86s0.9-0.85,1.45-1.09s1.13-0.36,1.75-0.36c0.74,0,1.38,0.13,1.93,0.4s1,0.65,1.37,1.16s0.63,1.11,0.81,1.83
		S161.61,147.09,161.61,148z M159.98,148.11c0-0.67-0.05-1.29-0.15-1.85s-0.27-1.04-0.5-1.45s-0.52-0.72-0.88-0.94
		s-0.8-0.33-1.31-0.33c-0.49,0-0.92,0.12-1.27,0.36s-0.65,0.56-0.87,0.97s-0.4,0.88-0.51,1.43s-0.17,1.13-0.17,1.74
		c0,0.68,0.05,1.3,0.16,1.86s0.27,1.04,0.5,1.44s0.52,0.71,0.87,0.94s0.79,0.33,1.29,0.33c0.49,0,0.92-0.12,1.27-0.36
		s0.65-0.56,0.88-0.97s0.4-0.88,0.51-1.43S159.98,148.73,159.98,148.11z"/>
	<path d="M171.95,142.33l-3.9,11.49h-2.11l-3.81-11.49h1.77l2.48,7.74l0.7,2.27l0.72-2.27l2.49-7.74H171.95z"/>
	<path d="M180.28,153.81h-6.53v-11.49h6.53v1.32h-4.97v3.56h4.77v1.32h-4.77v3.96h4.97V153.81z"/>
	<path d="M191.12,153.81h-1.77l-1.71-3.67c-0.13-0.28-0.26-0.51-0.4-0.7s-0.28-0.33-0.44-0.44s-0.33-0.19-0.51-0.23
		s-0.39-0.07-0.62-0.07h-0.74v5.12h-1.56v-11.49h3.08c0.67,0,1.24,0.07,1.72,0.22s0.87,0.35,1.18,0.62s0.53,0.58,0.68,0.95
		s0.22,0.78,0.22,1.23c0,0.36-0.05,0.7-0.16,1.02s-0.26,0.61-0.47,0.87s-0.47,0.49-0.77,0.68s-0.66,0.33-1.06,0.43
		c0.32,0.11,0.6,0.31,0.82,0.58s0.46,0.65,0.69,1.11L191.12,153.81z M188.62,145.48c0-0.62-0.19-1.08-0.58-1.38
		s-0.92-0.46-1.62-0.46h-1.48v3.8h1.27c0.37,0,0.7-0.04,1-0.13s0.55-0.21,0.76-0.38s0.37-0.37,0.48-0.62S188.62,145.8,188.62,145.48
		z"/>
	<path d="M200.06,143.66h-4.88v3.73h4.62v1.31h-4.62v5.12h-1.6v-11.49h6.48V143.66z"/>
	<path d="M210.33,153.81h-6.61v-11.49h1.59v10.15h5.02V153.81z"/>
	<path d="M220.99,148c0,1.03-0.12,1.92-0.36,2.67s-0.57,1.37-0.98,1.86s-0.9,0.85-1.45,1.09s-1.14,0.36-1.75,0.36
		c-0.74,0-1.38-0.13-1.93-0.4s-1-0.65-1.36-1.16s-0.63-1.12-0.8-1.84s-0.26-1.54-0.26-2.45c0-1.02,0.12-1.9,0.36-2.65
		s0.57-1.37,0.98-1.86s0.9-0.85,1.45-1.09s1.13-0.36,1.75-0.36c0.74,0,1.38,0.13,1.93,0.4s1,0.65,1.37,1.16s0.63,1.11,0.81,1.83
		S220.99,147.09,220.99,148z M219.36,148.11c0-0.67-0.05-1.29-0.15-1.85s-0.27-1.04-0.5-1.45s-0.52-0.72-0.88-0.94
		s-0.8-0.33-1.31-0.33c-0.49,0-0.92,0.12-1.27,0.36s-0.65,0.56-0.87,0.97s-0.4,0.88-0.51,1.43s-0.17,1.13-0.17,1.74
		c0,0.68,0.05,1.3,0.16,1.86s0.27,1.04,0.5,1.44s0.52,0.71,0.87,0.94s0.79,0.33,1.29,0.33c0.49,0,0.92-0.12,1.27-0.36
		s0.65-0.56,0.88-0.97s0.4-0.88,0.51-1.43S219.36,148.73,219.36,148.11z"/>
	<path d="M230.97,142.33l-0.77,11.49h-2.03l-1.42-4.09l-0.4-1.31l-0.41,1.42l-1.32,3.98h-1.96l-0.79-11.49h1.48l0.45,7.81l0.13,2.14
		l0.55-1.82l1.39-4.26h1.08l1.6,4.57l0.54,1.51l0.04-1.58l0.46-8.38H230.97z"/>
	<path d="M250.52,147.94c0,0.55-0.04,1.08-0.13,1.58s-0.22,0.97-0.41,1.41s-0.43,0.83-0.73,1.18s-0.67,0.66-1.1,0.91
		s-0.94,0.45-1.51,0.58s-1.23,0.21-1.96,0.21h-2.46v-11.49h2.96c1.79,0,3.13,0.46,4.01,1.38S250.52,146.04,250.52,147.94z
		 M248.87,148.06c0-0.81-0.08-1.5-0.23-2.07s-0.38-1.02-0.69-1.36s-0.7-0.6-1.17-0.75s-1.02-0.23-1.65-0.23h-1.34v8.82h1.17
		C247.57,152.46,248.87,150.99,248.87,148.06z"/>
	<path d="M260.97,153.81h-1.71l-0.8-2.5h-4.78l-0.81,2.5h-1.63l3.81-11.49h2.14L260.97,153.81z M258.01,149.91l-1.94-6.14
		l-1.94,6.14H258.01z"/>
	<path d="M270.2,143.66h-3.4v10.15h-1.58v-10.15h-3.4v-1.34h8.38V143.66z"/>
	<path d="M280.76,153.81h-1.71l-0.8-2.5h-4.78l-0.81,2.5h-1.63l3.81-11.49H277L280.76,153.81z M277.81,149.91l-1.94-6.14l-1.94,6.14
		H277.81z"/>
	<path d="M299.04,153.81h-6.53v-11.49h6.53v1.32h-4.97v3.56h4.77v1.32h-4.77v3.96h4.97V153.81z"/>
	<path d="M309.5,153.81h-2.04l-3.35-7.16l-0.97-2.3v5.79v3.67h-1.46v-11.49h2.01l3.19,6.79l1.15,2.63v-6.15v-3.26h1.46V153.81z"/>
	<path d="M319.68,143.66h-3.4v10.15h-1.58v-10.15h-3.4v-1.34h8.38V143.66z"/>
	<path d="M328.73,153.81h-6.53v-11.49h6.53v1.32h-4.97v3.56h4.77v1.32h-4.77v3.96h4.97V153.81z"/>
	<path d="M339.57,153.81h-1.77l-1.71-3.67c-0.13-0.28-0.26-0.51-0.4-0.7s-0.28-0.33-0.44-0.44s-0.33-0.19-0.51-0.23
		s-0.39-0.07-0.62-0.07h-0.74v5.12h-1.56v-11.49h3.08c0.67,0,1.24,0.07,1.72,0.22s0.87,0.35,1.18,0.62s0.53,0.58,0.68,0.95
		s0.22,0.78,0.22,1.23c0,0.36-0.05,0.7-0.16,1.02s-0.26,0.61-0.47,0.87s-0.47,0.49-0.77,0.68s-0.66,0.33-1.06,0.43
		c0.32,0.11,0.6,0.31,0.82,0.58s0.46,0.65,0.69,1.11L339.57,153.81z M337.06,145.48c0-0.62-0.19-1.08-0.58-1.38
		s-0.92-0.46-1.62-0.46h-1.48v3.8h1.27c0.37,0,0.7-0.04,1-0.13s0.55-0.21,0.76-0.38s0.37-0.37,0.48-0.62S337.06,145.8,337.06,145.48
		z"/>
	<path d="M349.16,145.84c0,0.47-0.09,0.93-0.26,1.39s-0.45,0.87-0.82,1.23s-0.84,0.66-1.42,0.88s-1.26,0.34-2.06,0.34h-1.42v4.12
		h-1.56v-11.49h3.23c0.57,0,1.11,0.06,1.63,0.19s0.98,0.33,1.38,0.61s0.71,0.64,0.94,1.09S349.16,145.2,349.16,145.84z
		 M347.53,145.91c0-0.74-0.24-1.3-0.73-1.7s-1.16-0.59-2.03-0.59h-1.6v4.73h1.46c0.93,0,1.64-0.2,2.14-0.61
		S347.53,146.73,347.53,145.91z"/>
	<path d="M359.36,153.81h-1.77l-1.71-3.67c-0.13-0.28-0.26-0.51-0.4-0.7s-0.28-0.33-0.44-0.44s-0.33-0.19-0.51-0.23
		s-0.39-0.07-0.62-0.07h-0.74v5.12h-1.56v-11.49h3.08c0.67,0,1.24,0.07,1.72,0.22s0.87,0.35,1.18,0.62s0.53,0.58,0.68,0.95
		s0.22,0.78,0.22,1.23c0,0.36-0.05,0.7-0.16,1.02s-0.26,0.61-0.47,0.87s-0.47,0.49-0.77,0.68s-0.66,0.33-1.06,0.43
		c0.32,0.11,0.6,0.31,0.82,0.58s0.46,0.65,0.69,1.11L359.36,153.81z M356.86,145.48c0-0.62-0.19-1.08-0.58-1.38
		s-0.92-0.46-1.62-0.46h-1.48v3.8h1.27c0.37,0,0.7-0.04,1-0.13s0.55-0.21,0.76-0.38s0.37-0.37,0.48-0.62S356.86,145.8,356.86,145.48
		z"/>
	<path d="M364.18,143.65h-2.65v-1.32h6.87v1.32h-2.65v8.83h2.65v1.34h-6.87v-1.34h2.65V143.65z"/>
	<path d="M378.68,150.7c0,0.54-0.11,1.02-0.33,1.43s-0.53,0.75-0.93,1.02s-0.88,0.48-1.44,0.61s-1.18,0.2-1.85,0.2
		c-0.3,0-0.61-0.01-0.91-0.04s-0.59-0.05-0.87-0.09s-0.54-0.08-0.79-0.12s-0.47-0.1-0.67-0.15v-1.51c0.44,0.16,0.93,0.29,1.48,0.39
		s1.17,0.14,1.87,0.14c0.5,0,0.93-0.04,1.29-0.12s0.64-0.2,0.87-0.35s0.39-0.34,0.49-0.57s0.15-0.48,0.15-0.76
		c0-0.31-0.09-0.58-0.26-0.8s-0.4-0.42-0.68-0.59s-0.6-0.33-0.96-0.47s-0.73-0.29-1.1-0.44s-0.74-0.32-1.1-0.5s-0.68-0.39-0.96-0.63
		s-0.51-0.53-0.68-0.86s-0.26-0.72-0.26-1.17c0-0.39,0.08-0.78,0.25-1.16s0.42-0.72,0.76-1.02s0.79-0.53,1.33-0.72
		s1.19-0.27,1.94-0.27c0.19,0,0.4,0.01,0.63,0.03s0.45,0.04,0.69,0.07s0.46,0.07,0.69,0.11s0.44,0.08,0.63,0.13v1.41
		c-0.45-0.13-0.9-0.23-1.35-0.29s-0.89-0.1-1.31-0.1c-0.9,0-1.56,0.15-1.98,0.45s-0.63,0.7-0.63,1.2c0,0.31,0.09,0.58,0.26,0.8
		s0.4,0.42,0.68,0.6s0.6,0.34,0.96,0.48s0.73,0.29,1.1,0.44s0.74,0.32,1.1,0.5s0.68,0.4,0.96,0.65s0.51,0.54,0.68,0.87
		S378.68,150.25,378.68,150.7z"/>
	<path d="M388.11,153.81h-6.53v-11.49h6.53v1.32h-4.97v3.56h4.77v1.32h-4.77v3.96h4.97V153.81z"/>
</g>
<g class="stroke-path" stroke="#000000" stroke-width=".1">
	<path d="M40.92,154.23H0V0h40.92v11.62H13.78v130.99h27.14V154.23z"/>
</g>
<g class="stroke-path" stroke="#000000" stroke-width=".1">
	<path d="M452.36,154.23h-40.92v-11.62h26.98V11.62h-26.98V0h40.92V154.23z"/>
</g>
<g class="stroke-path" stroke="#000000" stroke-width=".1">
	<path d="M115.65,117.12c-3.76,1.44-7.62,2.5-11.58,3.2c-3.96,0.69-8.04,1.04-12.24,1.04c-13.17,0-23.31-3.57-30.42-10.71
		c-7.11-7.14-10.67-17.57-10.67-31.29c0-6.58,1.02-12.56,3.07-17.93c2.05-5.37,4.92-9.96,8.63-13.78c3.71-3.82,8.13-6.77,13.28-8.84
		s10.82-3.11,17.02-3.11c4.32,0,8.36,0.3,12.12,0.91c3.76,0.61,7.36,1.61,10.79,2.99v13.78c-3.6-1.88-7.26-3.25-11-4.11
		c-3.74-0.86-7.6-1.29-11.58-1.29c-3.71,0-7.21,0.71-10.5,2.12c-3.29,1.41-6.18,3.44-8.67,6.1s-4.46,5.89-5.89,9.71
		c-1.44,3.82-2.16,8.13-2.16,12.95c0,10.07,2.45,17.61,7.35,22.62c4.9,5.01,11.69,7.51,20.38,7.51c3.93,0,7.73-0.44,11.41-1.33
		c3.68-0.88,7.23-2.21,10.67-3.98V117.12z"/>
	<path d="M216.92,77.86c0,6.47-0.91,12.41-2.74,17.8c-1.83,5.4-4.46,10.02-7.89,13.86c-3.43,3.85-7.61,6.83-12.53,8.96
		c-4.93,2.13-10.51,3.2-16.77,3.2c-5.98,0-11.33-0.93-16.06-2.78c-4.73-1.85-8.75-4.58-12.04-8.18c-3.29-3.6-5.81-8.05-7.55-13.36
		c-1.74-5.31-2.62-11.43-2.62-18.34c0-6.47,0.91-12.38,2.74-17.72c1.83-5.34,4.45-9.93,7.89-13.78c3.43-3.85,7.61-6.83,12.53-8.96
		c4.92-2.13,10.51-3.2,16.77-3.2c5.98,0,11.33,0.93,16.06,2.78c4.73,1.85,8.74,4.57,12.04,8.13c3.29,3.57,5.81,8.01,7.55,13.32
		C216.05,64.91,216.92,71,216.92,77.86z M202.15,78.53c0-5.15-0.57-9.64-1.7-13.49c-1.14-3.85-2.75-7.06-4.86-9.63
		c-2.1-2.57-4.66-4.51-7.68-5.81c-3.02-1.3-6.38-1.95-10.08-1.95c-4.32,0-8.01,0.84-11.08,2.53c-3.07,1.69-5.59,3.94-7.55,6.77
		c-1.96,2.82-3.4,6.1-4.32,9.84c-0.91,3.74-1.37,7.65-1.37,11.75c0,5.15,0.57,9.66,1.7,13.53c1.13,3.87,2.75,7.1,4.86,9.67
		c2.1,2.57,4.65,4.51,7.64,5.81c2.99,1.3,6.36,1.95,10.13,1.95c4.32,0,8.01-0.84,11.08-2.53c3.07-1.69,5.59-3.94,7.55-6.76
		c1.96-2.82,3.4-6.1,4.32-9.84C201.69,86.62,202.15,82.68,202.15,78.53z"/>
	<path d="M233.61,80.27c0-7.08,0.97-13.38,2.91-18.88c1.94-5.51,4.69-10.15,8.26-13.95c3.57-3.79,7.86-6.67,12.87-8.63
		c5.01-1.96,10.58-2.95,16.73-2.95c2.66,0,5.27,0.17,7.84,0.5c2.57,0.33,5.11,0.86,7.6,1.58V2.91h14.53V120.2h-12.95l-0.5-15.77
		c-4.04,5.87-8.41,10.21-13.12,13.03c-4.7,2.82-9.79,4.23-15.27,4.23c-4.76,0-8.95-1-12.58-2.99c-3.63-1.99-6.64-4.8-9.05-8.43
		c-2.41-3.62-4.22-7.98-5.44-13.07C234.22,92.11,233.61,86.47,233.61,80.27z M248.38,79.36c0,10.07,1.48,17.58,4.44,22.54
		c2.96,4.95,7.15,7.43,12.58,7.43c3.65,0,7.51-1.63,11.58-4.9c4.07-3.26,8.34-8.11,12.82-14.53V51.22
		c-2.38-1.11-5.01-1.95-7.89-2.53c-2.88-0.58-5.73-0.87-8.55-0.87c-7.86,0-13.99,2.55-18.39,7.64
		C250.58,60.54,248.38,68.51,248.38,79.36z"/>
	<path d="M401.7,74.13c0,2.05-0.03,3.76-0.08,5.15c-0.06,1.38-0.14,2.68-0.25,3.9h-58.52c0,8.52,2.38,15.07,7.14,19.63
		c4.76,4.57,11.62,6.85,20.59,6.85c2.43,0,4.87-0.1,7.3-0.29c2.43-0.19,4.79-0.46,7.06-0.79c2.27-0.33,4.44-0.71,6.52-1.12
		c2.08-0.41,4-0.87,5.77-1.37v11.87c-3.93,1.11-8.37,2.01-13.32,2.7c-4.95,0.69-10.09,1.04-15.4,1.04c-7.14,0-13.28-0.97-18.43-2.91
		s-9.37-4.74-12.66-8.42c-3.29-3.68-5.73-8.19-7.3-13.53c-1.58-5.34-2.37-11.38-2.37-18.14c0-5.87,0.84-11.41,2.53-16.64
		c1.69-5.23,4.15-9.82,7.39-13.78c3.24-3.96,7.21-7.1,11.91-9.42c4.7-2.32,10.04-3.49,16.02-3.49c5.81,0,10.96,0.91,15.44,2.74
		s8.26,4.41,11.33,7.76c3.07,3.35,5.39,7.42,6.97,12.2C400.91,62.85,401.7,68.21,401.7,74.13z M386.68,72.05
		c0.17-3.71-0.19-7.1-1.08-10.17c-0.89-3.07-2.26-5.71-4.11-7.93c-1.85-2.21-4.16-3.94-6.93-5.19c-2.77-1.25-5.98-1.87-9.63-1.87
		c-3.15,0-6.03,0.61-8.63,1.83c-2.6,1.22-4.84,2.93-6.72,5.15c-1.88,2.21-3.4,4.87-4.57,7.97c-1.16,3.1-1.88,6.5-2.16,10.21H386.68z
		"/>
</g>
<g class="stroke-path" stroke="#000000" stroke-width=".1">
	<path id="st0" class="st0" d="M115.65,116.12c-3.76,1.44-7.62,2.5-11.58,3.2c-3.96,0.69-8.04,1.04-12.24,1.04
		c-13.17,0-23.31-3.57-30.42-10.71c-7.11-7.14-10.67-17.57-10.67-31.29c0-6.58,1.02-12.56,3.07-17.93
		c2.05-5.37,4.92-9.96,8.63-13.78c3.71-3.82,8.13-6.77,13.28-8.84s10.82-3.11,17.02-3.11c4.32,0,8.36,0.3,12.12,0.91
		c3.76,0.61,7.36,1.61,10.79,2.99v13.78c-3.6-1.88-7.26-3.25-11-4.11c-3.74-0.86-7.6-1.29-11.58-1.29c-3.71,0-7.21,0.71-10.5,2.12
		c-3.29,1.41-6.18,3.44-8.67,6.1s-4.46,5.89-5.89,9.71c-1.44,3.82-2.16,8.13-2.16,12.95c0,10.07,2.45,17.61,7.35,22.62
		c4.9,5.01,11.69,7.51,20.38,7.51c3.93,0,7.73-0.44,11.41-1.33c3.68-0.88,7.23-2.21,10.67-3.98V116.12z"/>
	<path class="st0" d="M216.92,76.86c0,6.47-0.91,12.41-2.74,17.8c-1.83,5.4-4.46,10.02-7.89,13.86c-3.43,3.85-7.61,6.83-12.53,8.96
		c-4.93,2.13-10.51,3.2-16.77,3.2c-5.98,0-11.33-0.93-16.06-2.78c-4.73-1.85-8.75-4.58-12.04-8.18c-3.29-3.6-5.81-8.05-7.55-13.36
		c-1.74-5.31-2.62-11.43-2.62-18.34c0-6.47,0.91-12.38,2.74-17.72c1.83-5.34,4.45-9.93,7.89-13.78c3.43-3.85,7.61-6.83,12.53-8.96
		c4.92-2.13,10.51-3.2,16.77-3.2c5.98,0,11.33,0.93,16.06,2.78c4.73,1.85,8.74,4.57,12.04,8.13c3.29,3.57,5.81,8.01,7.55,13.32
		C216.05,63.91,216.92,70,216.92,76.86z M202.15,77.53c0-5.15-0.57-9.64-1.7-13.49c-1.14-3.85-2.75-7.06-4.86-9.63
		c-2.1-2.57-4.66-4.51-7.68-5.81c-3.02-1.3-6.38-1.95-10.08-1.95c-4.32,0-8.01,0.84-11.08,2.53c-3.07,1.69-5.59,3.94-7.55,6.77
		c-1.96,2.82-3.4,6.1-4.32,9.84c-0.91,3.74-1.37,7.65-1.37,11.75c0,5.15,0.57,9.66,1.7,13.53c1.13,3.87,2.75,7.1,4.86,9.67
		c2.1,2.57,4.65,4.51,7.64,5.81c2.99,1.3,6.36,1.95,10.13,1.95c4.32,0,8.01-0.84,11.08-2.53c3.07-1.69,5.59-3.94,7.55-6.76
		c1.96-2.82,3.4-6.1,4.32-9.84C201.69,85.62,202.15,81.68,202.15,77.53z"/>
	<path class="st0" d="M233.61,79.27c0-7.08,0.97-13.38,2.91-18.88c1.94-5.51,4.69-10.15,8.26-13.95c3.57-3.79,7.86-6.67,12.87-8.63
		c5.01-1.96,10.58-2.95,16.73-2.95c2.66,0,5.27,0.17,7.84,0.5c2.57,0.33,5.11,0.86,7.6,1.58V1.91h14.53V119.2h-12.95l-0.5-15.77
		c-4.04,5.87-8.41,10.21-13.12,13.03c-4.7,2.82-9.79,4.23-15.27,4.23c-4.76,0-8.95-1-12.58-2.99c-3.63-1.99-6.64-4.8-9.05-8.43
		c-2.41-3.62-4.22-7.98-5.44-13.07C234.22,91.11,233.61,85.47,233.61,79.27z M248.38,78.36c0,10.07,1.48,17.58,4.44,22.54
		c2.96,4.95,7.15,7.43,12.58,7.43c3.65,0,7.51-1.63,11.58-4.9c4.07-3.26,8.34-8.11,12.82-14.53V50.22
		c-2.38-1.11-5.01-1.95-7.89-2.53c-2.88-0.58-5.73-0.87-8.55-0.87c-7.86,0-13.99,2.55-18.39,7.64
		C250.58,59.54,248.38,67.51,248.38,78.36z"/>
	<path class="st0" d="M401.7,73.13c0,2.05-0.03,3.76-0.08,5.15c-0.06,1.38-0.14,2.68-0.25,3.9h-58.52c0,8.52,2.38,15.07,7.14,19.63
		c4.76,4.57,11.62,6.85,20.59,6.85c2.43,0,4.87-0.1,7.3-0.29c2.43-0.19,4.79-0.46,7.06-0.79c2.27-0.33,4.44-0.71,6.52-1.12
		c2.08-0.41,4-0.87,5.77-1.37v11.87c-3.93,1.11-8.37,2.01-13.32,2.7c-4.95,0.69-10.09,1.04-15.4,1.04c-7.14,0-13.28-0.97-18.43-2.91
		s-9.37-4.74-12.66-8.42c-3.29-3.68-5.73-8.19-7.3-13.53c-1.58-5.34-2.37-11.38-2.37-18.14c0-5.87,0.84-11.41,2.53-16.64
		c1.69-5.23,4.15-9.82,7.39-13.78c3.24-3.96,7.21-7.1,11.91-9.42c4.7-2.32,10.04-3.49,16.02-3.49c5.81,0,10.96,0.91,15.44,2.74
		s8.26,4.41,11.33,7.76c3.07,3.35,5.39,7.42,6.97,12.2C400.91,61.85,401.7,67.21,401.7,73.13z M386.68,71.05
		c0.17-3.71-0.19-7.1-1.08-10.17c-0.89-3.07-2.26-5.71-4.11-7.93c-1.85-2.21-4.16-3.94-6.93-5.19c-2.77-1.25-5.98-1.87-9.63-1.87
		c-3.15,0-6.03,0.61-8.63,1.83c-2.6,1.22-4.84,2.93-6.72,5.15c-1.88,2.21-3.4,4.87-4.57,7.97c-1.16,3.1-1.88,6.5-2.16,10.21H386.68z
		"/>
</g>
</svg>
